solid cubo5
facet normal -0.0 -0.0 1.0
  outer loop
    vertex 20.0 0.0 40.0
    vertex 0.0 20.0 40.0
    vertex 0.0 0.0 40.0
  endloop
endfacet
facet normal -0.0 -0.0 1.0
  outer loop
    vertex 0.0 20.0 40.0
    vertex 20.0 0.0 40.0
    vertex 20.0 20.0 40.0
  endloop
endfacet
facet normal 0.0 -1.0 0.0
  outer loop
    vertex 40.0 0.0 20.0
    vertex 0.0 0.0 0.0
    vertex 40.0 0.0 0.0
  endloop
endfacet
facet normal 0.0 -1.0 0.0
  outer loop
    vertex 0.0 0.0 0.0
    vertex 40.0 0.0 20.0
    vertex 20.0 0.0 20.0
  endloop
endfacet
facet normal 0.0 -1.0 0.0
  outer loop
    vertex 0.0 0.0 0.0
    vertex 20.0 0.0 20.0
    vertex 0.0 0.0 40.0
  endloop
endfacet
facet normal 0.0 -1.0 0.0
  outer loop
    vertex 0.0 0.0 40.0
    vertex 20.0 0.0 20.0
    vertex 20.0 0.0 40.0
  endloop
endfacet
facet normal -1.0 0.0 0.0
  outer loop
    vertex 0.0 20.0 40.0
    vertex 0.0 0.0 0.0
    vertex 0.0 0.0 40.0
  endloop
endfacet
facet normal -1.0 0.0 0.0
  outer loop
    vertex 0.0 0.0 0.0
    vertex 0.0 20.0 40.0
    vertex 0.0 40.0 0.0
  endloop
endfacet
facet normal -1.0 0.0 0.0
  outer loop
    vertex 0.0 40.0 0.0
    vertex 0.0 20.0 40.0
    vertex 0.0 40.0 40.0
  endloop
endfacet
facet normal 1.0 -0.0 -0.0
  outer loop
    vertex 40.0 40.0 0.0
    vertex 40.0 0.0 20.0
    vertex 40.0 0.0 0.0
  endloop
endfacet
facet normal 1.0 -0.0 -0.0
  outer loop
    vertex 40.0 0.0 20.0
    vertex 40.0 40.0 0.0
    vertex 40.0 20.0 20.0
  endloop
endfacet
facet normal 1.0 -0.0 -0.0
  outer loop
    vertex 40.0 20.0 20.0
    vertex 40.0 40.0 0.0
    vertex 40.0 40.0 20.0
  endloop
endfacet
facet normal 0.0 0.0 -1.0
  outer loop
    vertex 40.0 40.0 0.0
    vertex 0.0 0.0 0.0
    vertex 0.0 40.0 0.0
  endloop
endfacet
facet normal 0.0 0.0 -1.0
  outer loop
    vertex 0.0 0.0 0.0
    vertex 40.0 40.0 0.0
    vertex 40.0 0.0 0.0
  endloop
endfacet
facet normal 0.44721359549995804 -2.6693862238483498e-17 0.8944271909999159
  outer loop
    vertex 20.0 20.0 30.0
    vertex 0.0 40.0 40.0
    vertex 0.0 20.0 40.0
  endloop
endfacet
facet normal 0.44721359549995804 -2.6693862238483498e-17 0.8944271909999159
  outer loop
    vertex 0.0 40.0 40.0
    vertex 20.0 20.0 30.0
    vertex 40.0 40.0 20.0
  endloop
endfacet
facet normal 0.44721359549995804 -2.6693862238483498e-17 0.8944271909999159
  outer loop
    vertex 40.0 40.0 20.0
    vertex 20.0 20.0 30.0
    vertex 40.0 20.0 20.0
  endloop
endfacet
facet normal 0.0 -1.0 0.0
  outer loop
    vertex 20.0 20.0 30.0
    vertex 20.0 20.0 20.0
    vertex 40.0 20.0 20.0
  endloop
endfacet
facet normal 1.0 -0.0 -0.0
  outer loop
    vertex 20.0 20.0 20.0
    vertex 20.0 0.0 40.0
    vertex 20.0 0.0 20.0
  endloop
endfacet
facet normal 1.0 -0.0 -0.0
  outer loop
    vertex 20.0 0.0 40.0
    vertex 20.0 20.0 20.0
    vertex 20.0 20.0 40.0
  endloop
endfacet
facet normal 1.0 -0.0 -0.0
  outer loop
    vertex 20.0 20.0 40.0
    vertex 20.0 20.0 20.0
    vertex 20.0 20.0 30.0
  endloop
endfacet
facet normal -0.0 1.0 -0.0
  outer loop
    vertex 0.0 40.0 40.0
    vertex 40.0 40.0 0.0
    vertex 0.0 40.0 0.0
  endloop
endfacet
facet normal -0.0 1.0 -0.0
  outer loop
    vertex 40.0 40.0 0.0
    vertex 0.0 40.0 40.0
    vertex 40.0 40.0 20.0
  endloop
endfacet
facet normal 0.0 -1.0 0.0
  outer loop
    vertex 0.0 20.0 40.0
    vertex 20.0 20.0 30.0
    vertex 20.0 20.0 40.0
  endloop
endfacet
facet normal -0.0 -0.0 1.0
  outer loop
    vertex 40.0 0.0 20.0
    vertex 20.0 20.0 20.0
    vertex 20.0 0.0 20.0
  endloop
endfacet
facet normal -0.0 -0.0 1.0
  outer loop
    vertex 20.0 20.0 20.0
    vertex 40.0 0.0 20.0
    vertex 40.0 20.0 20.0
  endloop
endfacet
endsolid cubo5
