solid cubo3
facet normal -0.0 -0.0 1.0
  outer loop
    vertex 20.0 0.0 40.0
    vertex 0.0 40.0 40.0
    vertex 0.0 0.0 40.0
  endloop
endfacet
facet normal -0.0 -0.0 1.0
  outer loop
    vertex 0.0 40.0 40.0
    vertex 20.0 0.0 40.0
    vertex 20.0 40.0 40.0
  endloop
endfacet
facet normal -0.0 -0.0 1.0
  outer loop
    vertex 20.0 40.0 40.0
    vertex 20.0 0.0 40.0
    vertex 20.0 20.0 40.0
  endloop
endfacet
facet normal 0.7071067811865475 -6.331005316527649e-17 0.7071067811865476
  outer loop
    vertex 40.0 20.0 20.0
    vertex 20.0 40.0 40.0
    vertex 20.0 20.0 40.0
  endloop
endfacet
facet normal 0.7071067811865475 -6.331005316527649e-17 0.7071067811865476
  outer loop
    vertex 20.0 40.0 40.0
    vertex 40.0 20.0 20.0
    vertex 40.0 40.0 20.0
  endloop
endfacet
facet normal 0.0 -1.0 0.0
  outer loop
    vertex 40.0 0.0 20.0
    vertex 0.0 0.0 0.0
    vertex 40.0 0.0 0.0
  endloop
endfacet
facet normal 0.0 -1.0 0.0
  outer loop
    vertex 0.0 0.0 0.0
    vertex 40.0 0.0 20.0
    vertex 20.0 0.0 20.0
  endloop
endfacet
facet normal 0.0 -1.0 0.0
  outer loop
    vertex 0.0 0.0 0.0
    vertex 20.0 0.0 20.0
    vertex 0.0 0.0 40.0
  endloop
endfacet
facet normal 0.0 -1.0 0.0
  outer loop
    vertex 0.0 0.0 40.0
    vertex 20.0 0.0 20.0
    vertex 20.0 0.0 40.0
  endloop
endfacet
facet normal -1.0 0.0 0.0
  outer loop
    vertex 0.0 40.0 40.0
    vertex 0.0 0.0 0.0
    vertex 0.0 0.0 40.0
  endloop
endfacet
facet normal -1.0 0.0 0.0
  outer loop
    vertex 0.0 0.0 0.0
    vertex 0.0 40.0 40.0
    vertex 0.0 40.0 0.0
  endloop
endfacet
facet normal 1.0 -0.0 -0.0
  outer loop
    vertex 40.0 40.0 0.0
    vertex 40.0 0.0 20.0
    vertex 40.0 0.0 0.0
  endloop
endfacet
facet normal 1.0 -0.0 -0.0
  outer loop
    vertex 40.0 0.0 20.0
    vertex 40.0 40.0 0.0
    vertex 40.0 20.0 20.0
  endloop
endfacet
facet normal 1.0 -0.0 -0.0
  outer loop
    vertex 40.0 20.0 20.0
    vertex 40.0 40.0 0.0
    vertex 40.0 40.0 20.0
  endloop
endfacet
facet normal -0.0 1.0 -0.0
  outer loop
    vertex 0.0 40.0 40.0
    vertex 40.0 40.0 0.0
    vertex 0.0 40.0 0.0
  endloop
endfacet
facet normal -0.0 1.0 -0.0
  outer loop
    vertex 40.0 40.0 0.0
    vertex 0.0 40.0 40.0
    vertex 40.0 40.0 20.0
  endloop
endfacet
facet normal -0.0 1.0 -0.0
  outer loop
    vertex 40.0 40.0 20.0
    vertex 0.0 40.0 40.0
    vertex 20.0 40.0 40.0
  endloop
endfacet
facet normal 0.0 0.0 -1.0
  outer loop
    vertex 40.0 40.0 0.0
    vertex 0.0 0.0 0.0
    vertex 0.0 40.0 0.0
  endloop
endfacet
facet normal 0.0 0.0 -1.0
  outer loop
    vertex 0.0 0.0 0.0
    vertex 40.0 40.0 0.0
    vertex 40.0 0.0 0.0
  endloop
endfacet
facet normal 1.0 -0.0 -0.0
  outer loop
    vertex 20.0 20.0 20.0
    vertex 20.0 0.0 40.0
    vertex 20.0 0.0 20.0
  endloop
endfacet
facet normal 1.0 -0.0 -0.0
  outer loop
    vertex 20.0 0.0 40.0
    vertex 20.0 20.0 20.0
    vertex 20.0 20.0 40.0
  endloop
endfacet
facet normal 0.0 -1.0 0.0
  outer loop
    vertex 20.0 20.0 40.0
    vertex 20.0 20.0 20.0
    vertex 40.0 20.0 20.0
  endloop
endfacet
facet normal -0.0 -0.0 1.0
  outer loop
    vertex 40.0 0.0 20.0
    vertex 20.0 20.0 20.0
    vertex 20.0 0.0 20.0
  endloop
endfacet
facet normal -0.0 -0.0 1.0
  outer loop
    vertex 20.0 20.0 20.0
    vertex 40.0 0.0 20.0
    vertex 40.0 20.0 20.0
  endloop
endfacet
endsolid cubo3
